Patient4_TMGait_0pt5_01_left_08_EMG.mot
version=1
nRows=33
nColumns=33
inDegrees=no
endheader
time	1LAddLong	2LGlutMax	3LGlutMed	4LIliopsoas	5LSemiMemb	6LBicFemLong	7LRecFem	8LVastMed	9LVastLat	10LGasMed	11LTibAnt	12lTibPost	13LPeroneusLong	14LSol	15LExtDigLong	16LFlexDigLong	17RAddLong	18RGlutMax	19RGlutMed	20RIliopsoas	21RSemiMemb	22RBicFemLong	23RRecFem	24RVastMed	25RVastLat	26RGasMed	27RTibAnt	28RTibPost	29RPeroneusLong	30RSol	31RExtDigLong	32RFlexDigLong
11.695	-0.015411	-0.016937	-0.011444	-0.007935	-0.15228	-0.15137	-0.10788	-0.012665	0.046844	-0.14633	0.079803	0.00824	0.009308	0.27008	-1.2674	-0.004578	0.000305	0.036774	0.35309	0.19806	0.30868	0.20554	-0.31906	-0.018005	-0.050659	-0.00473	0.071564	-0.004425	0.19104	-0.023499	-0.002441	0.005798
11.696	-0.005646	0.00824	-0.005341	0.001526	-0.05188	-0.19745	-0.10574	0.001526	0.042572	-0.086365	0.082092	0.014648	-0.008392	0.17471	-0.96985	-0.011597	0.03067	0.076752	0.23239	0.12985	0.18417	0.18173	-0.30823	-0.16281	-0.22797	-0.016479	0.042114	-0.006256	0.033569	-0.065765	-0.00061	0.005341
11.697	0.011292	0.063782	0.007324	-0.00061	0.020294	-0.15884	-0.11581	-0.002899	0.03067	-0.033722	0.006104	0.002289	0.0177	0.073547	-0.96252	0.006104	0.054779	0.093384	0.16068	0.048065	0.11719	0.09964	-0.20126	-0.26215	-0.25681	-0.020447	-0.068359	-0.009155	0.16556	-0.070343	-0.001831	0.004578
11.698	0.017242	0.051575	0.020905	0.01358	0.015411	-0.040894	-0.1329	-0.007935	0.035858	-0.018158	0.044403	0.005341	0.040283	0.070038	-0.45181	-0.005035	0.062561	0.005341	-0.034485	-0.026093	0.18906	-0.026245	-0.056763	-0.33646	-0.17197	-0.022583	-0.10544	-0.002289	-0.013733	0.099487	-0.002747	0.005798
11.699	0.032196	0.017853	0.045471	0.006866	0.06012	0.022278	-0.14236	0.003357	0.023804	-0.004883	-0.060577	0.009613	0.020294	-0.054016	-0.15823	-0.007324	0.034485	0.031738	-0.056458	-0.0354	0.094604	-0.12589	-0.21255	-0.38361	-0.011749	0.013275	-0.075073	-0.005646	0.18967	0.015106	-0.003052	0.005493
11.7	0.026245	0.033722	0.05661	0.005798	0.13489	-0.076447	-0.16174	-0.008698	0.020294	-0.016632	0.075836	-0.01236	0.017395	-0.18509	0.019226	-0.00473	0.074005	0.077515	-0.044708	-0.006561	0.081177	-0.12863	-0.13519	-0.21912	0.002594	0.020294	-0.019226	-0.001373	0.061951	0.001984	-0.000916	-0.005188
11.701	0.017548	0.057831	0.064087	0.006256	0.093079	-0.10925	-0.12894	-0.010223	-0.010376	0.038147	0.12329	0.00885	-0.058899	-0.32562	0.006104	0.001984	0.06134	0.074615	-0.055084	0.042877	0.10254	-0.25589	-0.17792	0.049744	0.00885	0.005646	0.070038	-0.003204	-0.46646	-0.00412	-0.006104	-0.009155
11.702	0.010376	0.093536	0.069122	0.011292	0.061188	-0.091095	-0.12817	-0.008087	-0.018005	0.057373	0.029602	-0.00412	-0.12817	-0.35126	0.30792	-0.007019	0.017242	-0.037842	0.092468	0.037384	0.09613	-0.22812	-0.11215	0.15228	0.045013	0.011139	0.046234	-0.005035	-0.47806	0.010529	0.002136	-0.010986
11.703	0.011139	0.027313	0.087585	0.016022	0.016785	0.003204	-0.10727	-0.003052	-0.032196	0.018921	-0.097961	-0.005341	-0.029144	-0.2536	0.48569	-0.005035	0.015106	-0.13977	0.22324	0.12955	0.1973	-0.070953	-0.021515	0.23727	0.054932	0.005646	0.053711	-0.004578	-0.22858	-0.022278	-0.004272	-0.006561
11.704	0.051117	0.02243	0.092773	-0.005798	0.010681	0.02243	-0.10819	-0.000458	-0.030823	-0.027924	-0.26947	-0.004578	0.086823	-0.072632	0.48279	0.00412	0.010376	-0.2182	0.076752	0.13489	0.078888	0.01236	0.039825	0.46204	-0.035858	-0.005341	0.076294	-0.012817	0.000305	-0.0354	-0.003815	-0.009308
11.705	-0.041504	0.021973	0.096588	0.007477	-0.006561	0.003967	-0.098572	-0.002136	-0.040283	-0.065002	-0.47714	0.007629	0.19043	-0.016937	0.096283	0.005188	0.003357	-0.23972	-0.30991	0.071869	0.054016	-0.072784	0.22247	0.7048	-0.11231	0.001373	0.019684	-0.003204	-0.41275	-0.09201	-0.006561	-0.010681
11.706	-0.039063	0.074921	0.11765	0.009155	-0.016174	-0.056763	-0.099182	0.000153	-0.0383	-0.005493	-0.42007	0.010834	0.18768	-0.097351	0.13519	-0.005951	-0.046539	-0.23163	-0.12909	0.042114	0.18478	-0.22522	0.16464	0.58029	-0.069885	0.008545	-0.26581	-0.002747	0.24429	-0.15549	-0.002441	-0.001678
11.707	-0.002136	0.038147	0.12512	0.007019	0.023193	-0.11337	-0.093689	-0.002136	-0.045166	0.068512	-0.1828	0.009308	0.04303	-0.21225	0.097046	-0.003204	-0.023193	-0.16815	0.33356	-0.002747	0.14816	-0.3125	0.1857	0.35278	0.06958	0.005798	-0.012817	-0.000458	-0.17868	-0.11383	-0.000458	-0.005493
11.708	0.001678	0.015411	0.13611	-0.002441	0.056152	-0.002441	-0.040741	0.001831	-0.060577	0.055389	0.084534	0.003967	-0.12909	-0.21469	-0.13519	-0.004425	-0.003815	-0.088806	0.49957	-0.037079	0.058289	-0.21515	0.070496	0.059204	0.1062	-0.002441	0.18478	-0.006866	-0.35477	0.000153	-0.002289	-0.003052
11.709	0.006561	-0.015411	0.12543	0.005798	0.054169	0.12192	-0.042572	0.001984	-0.078125	0.032043	0.15076	0.009613	-0.15457	-0.19836	0.10269	-0.013885	-0.023346	-0.042572	0.23651	-0.028992	0.001526	-0.041046	-0.023956	-0.4245	0.034637	-0.012512	0.22751	-0.007629	-0.10346	0.045929	0.010376	-0.003967
11.71	0.000458	0.010986	0.12009	0.008087	0.029907	0.091858	-0.057831	-0.001678	-0.070496	0.006409	0.1622	-0.003662	-0.14038	-0.23621	-0.22553	-0.003967	-0.033417	0.095978	0.22385	-0.02182	0.16556	-0.069885	-0.10407	-0.88791	0.20798	-0.010681	0.15625	-0.005646	0.20325	-0.057983	-0.002136	0.00061
11.711	0.008545	0.045166	0.12634	0.000763	0.012512	0.036469	-0.039978	-0.002747	-0.065918	0.057068	0.19653	0.003967	-0.13825	-0.19028	-0.08606	-0.009918	-0.002594	0.2861	0.26367	-0.030823	0.20691	-0.21011	-0.33157	-0.74661	0.49072	-0.000763	0.13596	-0.00412	0.42358	-0.1622	-0.001373	-0.007172
11.712	0.005188	0.0737	0.13611	0.00351	0.000305	0.12283	-0.048828	-0.003662	-0.083466	0.25116	0.090027	0.002441	-0.031281	-0.12344	0.15182	-0.003052	0.016785	0.41779	0.27985	-0.069733	0.028381	-0.31647	-0.21957	-0.82108	0.79468	-0.002289	-0.29923	-0.007172	0.57281	-0.13306	-0.00412	-0.001526
11.713	-0.006866	0.159	0.16251	-0.011139	-0.014954	0.12451	-0.026093	0.00061	-0.091553	0.39108	0.04425	0.001068	0.080414	-0.052032	0.38055	-0.002594	0.024719	0.4248	0.055389	-0.112	-0.15701	-0.10407	-0.17593	-0.62943	1.2508	-0.001221	-0.4776	-0.003357	0.92331	-0.15625	-0.004883	0.002594
11.714	0.001068	0.15854	0.1593	0.001373	-0.017853	0.081787	-0.056152	0.028076	-0.067596	0.59082	0.066833	0.004425	-0.027466	-0.051575	0.27329	0.007935	0.087585	0.25955	-0.21851	-0.076141	-0.17395	0.14633	-0.21133	-0.18051	1.6696	0.001984	-0.29098	-0.005798	0.54581	-0.16861	-0.005493	0.004425
11.715	-0.002289	0.12344	0.15961	-0.004425	-0.023346	0.013733	-0.046387	-0.008698	-0.075836	0.56534	-0.01236	-0.004578	-0.1358	-0.037842	0.2095	0.000305	0.11658	0.071869	-0.24216	0.014954	0.010834	0.29007	-0.20111	-0.043945	1.4246	0.004883	-0.13321	-0.010071	-0.1088	-0.11505	-0.008698	0.009003
11.716	0.006256	0.02533	0.20859	-0.010681	-0.023346	-0.033875	-0.057373	0.005188	-0.075684	-0.14679	-0.17822	0.001984	-0.023956	0.063324	0.64651	0.020447	0.07843	-0.19547	0.17487	0.016327	-0.081787	0.20172	-0.043488	-0.048065	0.5835	0.004425	0.093689	-0.003204	-0.51468	-0.02655	-0.005035	-0.002441
11.717	0.004272	0.053711	0.23773	-0.011597	-0.019531	-0.049286	-0.038605	0.000916	-0.075989	-0.54565	-0.50858	0.016327	0.1236	0.15091	0.90241	0.021515	-0.011139	-0.17716	0.10742	0.007324	-0.23529	0.22675	-0.018311	0.091705	-0.2446	0.000305	0.055389	-0.00946	-0.72769	0.064392	-0.003357	-0.000916
11.718	0.001221	0.085144	0.24475	-0.00946	-0.014496	-0.022888	-0.062561	-0.001831	-0.075073	-0.39642	-0.33035	0.018768	0.1294	0.092163	0.27527	0.006561	0.002747	-0.072784	-0.27771	-0.013275	0.022278	0.087891	0.015411	0.15213	-0.80002	-0.010986	-0.016022	-0.009918	-0.41718	0.14908	-0.001373	-0.010529
11.719	-0.000916	0.12589	0.23499	0.003967	0.009308	0.072327	-0.078888	0.001068	-0.077362	-0.30701	-0.006866	0.017853	0.18036	-0.041504	0.030212	-0.003357	0.067444	0.080109	-0.32074	-0.048065	0.2356	0.13458	0.09903	0.084381	-1.1884	-0.015259	-0.033264	-0.00824	-0.17563	0.15289	-0.001068	-0.010223
11.72	-0.005341	0.10239	0.23804	0.003052	0.003662	0.18555	-0.08255	-0.000916	-0.077667	-0.19867	0.14358	0.00885	0.10117	-0.08255	-0.44754	-0.017242	0.10773	-0.080109	-0.13321	0.085754	0.21225	0.17792	0.28427	-0.086975	-1.4268	-0.01297	0.017242	-0.008698	-0.095978	0.089264	0.002136	-0.009613
11.721	-0.00946	0.09201	0.23651	0.003662	-0.002899	0.18829	-0.065765	0.000763	-0.079651	-0.12634	0.10696	0.000305	0.078125	0.019531	-0.83557	-0.023041	0.14267	0.055084	-0.046692	0.074615	-0.17532	-0.032501	0.40482	-0.19455	-1.5945	-0.013885	0.13336	-0.007629	-0.095825	0.048065	-0.003052	-0.011444
11.722	-0.005798	0.039368	0.23514	0.005646	-0.020599	0.14358	-0.076599	-0.001984	-0.079956	-0.079651	-0.033112	0.007172	0.062256	0.16296	-0.97458	-0.027618	0.112	0.14816	-0.31204	0.065308	-0.13412	-0.17548	0.36652	-0.08194	-1.1063	-0.01297	0.14374	-0.007477	-0.094299	-0.00061	0.003204	-0.001984
11.723	0.010681	0.054016	0.23712	0.000305	-0.012207	0.093994	-0.08728	-0.002136	-0.061035	-0.047607	0.017853	0.004425	0.032196	0.11139	-0.64514	-0.010071	0.047607	0.21439	-0.42389	0.052032	0.29541	-0.21683	0.088959	0.075684	-0.25497	-0.00946	0.090179	-0.007935	-0.078278	-0.0177	-0.000916	-0.016022
11.724	0.001984	0.044861	0.23514	0.011444	-0.018158	0.086975	-0.093536	-0.004578	-0.066833	-0.053558	0.13992	0.002441	-0.02121	0.0354	-0.39368	0.033112	-0.023956	0.24506	-0.26733	0.014191	0.60669	0.045776	-0.057373	0.11673	0.42297	-0.005341	0.03479	-0.006409	-0.061035	-0.032196	-0.003967	-0.00061
11.725	0.002594	0.059967	0.23346	0.00473	-0.02655	0.001678	-0.087128	-0.007324	-0.057373	-0.007629	0.019226	0.015259	-0.077209	-0.037689	-0.20599	0.007935	-0.112	0.15976	-0.33798	0.029449	0.71274	0.1535	-0.029907	0.23529	0.44632	-0.00351	-0.15091	-0.006714	-0.004883	-0.055084	-0.004425	0.000916
11.726	0.014954	0.076447	0.24643	0.00351	-0.010376	-0.12604	-0.091553	-0.00946	-0.048523	0.021362	0.037994	-0.00061	-0.069733	-0.15564	-0.090027	-0.013428	-0.094604	-0.019836	0.23071	0.037079	0.40771	0.11292	0.16968	0.000763	0.006714	0.003662	-0.11917	-0.005341	-0.016174	-0.063324	-0.00824	-0.00061
11.727	0.001678	0.082092	0.23102	0.005951	0.019989	-0.17334	-0.084381	-0.003967	-0.056305	0.032501	0.060577	0.001373	-0.037689	-0.24139	-0.23392	-0.005188	-0.062103	-0.10605	0.25391	-0.009766	0.16388	0.15533	0.224	0.18387	-0.19287	-0.006714	-0.02182	-0.008698	-0.081482	-0.050812	-0.002289	-0.01236
